<?xml version="1.0" encoding="UTF-8" standalone="no"?>
<!-- Created with Inkscape (http://www.inkscape.org/) -->

<svg
   width="169.58174mm"
   height="47.096809mm"
   viewBox="0 0 169.58174 47.096809"
   version="1.1"
   id="svg1"
   sodipodi:docname="takt.plain.darkmode.svg"
   xmlns:inkscape="http://www.inkscape.org/namespaces/inkscape"
   xmlns:sodipodi="http://sodipodi.sourceforge.net/DTD/sodipodi-0.dtd"
   xmlns="http://www.w3.org/2000/svg"
   xmlns:svg="http://www.w3.org/2000/svg">
  <sodipodi:namedview
     id="namedview1"
     pagecolor="#ffffff"
     bordercolor="#000000"
     borderopacity="0.25"
     inkscape:showpageshadow="2"
     inkscape:pageopacity="0.0"
     inkscape:pagecheckerboard="0"
     inkscape:deskcolor="#d1d1d1"
     inkscape:document-units="mm" />
  <defs
     id="defs1">
    <rect
       x="255.1767"
       y="549.01654"
       width="216.51357"
       height="225.53494"
       id="rect7" />
    <rect
       x="170.56194"
       y="532.26251"
       width="454.49207"
       height="431.73834"
       id="rect6" />
    <rect
       x="197.18199"
       y="462.66885"
       width="402.09659"
       height="372.45486"
       id="rect5" />
  </defs>
  <g
     id="layer1"
     transform="translate(-13.627075,-60.773551)">
    <path
       id="path1-2"
       style="fill:#ac9d93;stroke-width:5.74373;stroke-dashoffset:7.23475"
       d="m 36.377625,60.773551 c -12.571302,0 -22.75055,10.512805 -22.75055,23.381519 0,12.868714 10.179248,23.38204 22.75055,23.38204 12.571301,0 22.750032,-10.513326 22.750032,-23.38204 0,-12.868714 -10.178731,-23.381519 -22.750032,-23.381519 z m 0,3.225127 c 8.181685,0 15.19044,5.177354 18.093986,12.560473 a 9.3964463,9.3964463 0 0 0 -5.528345,-1.800407 9.3964463,9.3964463 0 0 0 -9.396326,9.396843 9.3964463,9.3964463 0 0 0 9.396326,9.396325 9.3964463,9.3964463 0 0 0 5.542297,-1.837613 c -2.894648,7.403328 -9.912607,12.599751 -18.107938,12.599751 -10.777176,0 -19.525424,-8.981833 -19.525424,-20.15898 0,-11.177147 8.748248,-20.156392 19.525424,-20.156392 z m -5.16816,14.23789 a 5.7858401,5.9339668 0 0 0 -3.678846,1.722892 5.7858401,5.9339668 0 0 0 0,8.391736 5.7858401,5.9339668 0 0 0 8.182447,0 5.7858401,5.9339668 0 0 0 0,-8.391736 5.7858401,5.9339668 0 0 0 -4.503601,-1.722892 z M 20.26853,80.963534 a 3.2001521,3.2001521 0 0 0 -2.034501,0.929142 3.2001521,3.2001521 0 0 0 0,4.525822 3.2001521,3.2001521 0 0 0 4.525822,0 3.2001521,3.2001521 0 0 0 0,-4.525822 3.2001521,3.2001521 0 0 0 -2.491321,-0.929142 z" />
    <text
       xml:space="preserve"
       transform="scale(0.26458333)"
       id="text6"
       style="font-family:Unitblock;-inkscape-font-specification:Unitblock;text-align:start;writing-mode:lr-tb;direction:ltr;white-space:pre;shape-inside:url(#rect6);display:inline;fill:none;fill-opacity:1;stroke:#8d8d8d;stroke-width:12.7181;stroke-dasharray:none;stroke-dashoffset:53.4161;stroke-opacity:1" />
    <path
       d="M 75.551542,77.746392 V 65.346087 h -2.56774 c -0.626278,8.141614 -3.381901,12.275049 -8.454753,12.650816 v 2.442484 h 5.13548 v 15.970089 c 0,4.383944 0.125255,5.949644 0.751533,7.390084 1.002045,2.63036 3.507157,4.0708 7.139569,4.0708 5.636502,0 9.268915,-4.25869 9.268915,-10.897234 0,-0.375767 0,-0.814161 -0.06263,-1.440439 H 84.13155 c -0.187883,5.636503 -1.816206,8.517383 -4.884968,8.517383 -1.440439,0 -2.692995,-0.75154 -3.13139,-1.81621 -0.375767,-0.87679 -0.56365,-2.442483 -0.56365,-4.697084 V 80.439387 h 9.206286 v -2.692995 z m 40.645488,9.018403 c 0,-3.945552 -0.68891,-5.949641 -2.50511,-7.452708 -2.06672,-1.690951 -5.13548,-2.505112 -9.14366,-2.505112 -7.076942,0 -12.212421,3.319273 -12.212421,7.891102 0,2.317229 1.440439,3.820296 3.632412,3.820296 2.00409,0 3.381901,-1.315184 3.381901,-3.194018 0,-0.814161 -0.313139,-1.69095 -0.939417,-2.567739 -0.375766,-0.438395 -0.438394,-0.563651 -0.438394,-0.87679 0,-1.252556 2.505109,-2.379856 5.511249,-2.379856 2.00409,0 4.19606,0.626278 5.1981,1.565695 1.18993,1.002045 1.62833,2.505112 1.62833,5.323363 v 2.442484 c -6.51329,1.127301 -8.58001,1.628323 -11.648773,2.818251 -5.448619,2.00409 -8.016359,4.884969 -8.016359,8.893147 0,4.5092 3.507157,7.32745 9.081031,7.32745 4.321321,0 8.204241,-1.75358 10.897241,-4.94759 1.00204,3.19401 2.56774,4.44657 5.51124,4.44657 2.81825,0 5.76176,-1.81621 5.76176,-3.63241 0,-0.4384 -0.25051,-0.75154 -0.62628,-0.75154 -0.25051,0 -0.50102,0.0626 -0.93941,0.25052 -0.87679,0.37576 -1.25256,0.43839 -1.75358,0.43839 -1.75358,0 -2.37986,-1.1273 -2.37986,-4.321317 z m -5.88701,7.640591 c 0,3.757668 -0.18789,4.634458 -1.25256,6.262784 -1.56569,2.31722 -4.38394,3.88292 -7.13957,3.88292 -2.880877,0 -4.947594,-2.06672 -4.947594,-4.884968 0,-2.630368 1.315184,-4.509202 4.070804,-5.824386 1.94146,-0.876789 4.38395,-1.503067 9.26892,-2.317228 z m 24.86322,-2.630367 V 60.774258 l -11.58615,0.688906 v 2.692995 h 3.00614 c 2.37985,0.06263 2.69299,0.438395 2.69299,3.13139 v 31.940178 3.006133 c -0.0626,0.87679 -0.12525,1.25256 -0.37576,1.5657 -0.4384,0.56365 -1.62833,0.81416 -4.32132,0.87679 h -0.25051 v 2.2546 h 15.84483 v -2.2546 h -0.25051 c -4.19606,-0.12526 -4.75971,-0.4384 -4.75971,-2.693 v -2.755623 -3.569785 l 3.82029,-3.632412 7.45271,10.45884 c 0.31314,0.50102 0.4384,0.81416 0.4384,1.06468 0,0.87678 -0.68891,1.1273 -2.75563,1.1273 h -1.18993 v 2.2546 h 16.53374 v -2.2546 c -3.50715,-0.31314 -4.75971,-1.06468 -7.32745,-4.32132 l -8.89315,-12.149796 2.81825,-2.755623 c 3.69504,-3.569785 6.32541,-4.947596 10.5841,-5.448619 v -2.2546 h -16.47111 v 2.2546 h 1.94146 c 2.00409,0 2.94351,0.375767 2.94351,1.189929 0,0.688905 -0.4384,1.440439 -1.44044,2.442484 z M 171.93582,77.746392 V 65.346087 h -2.56774 c -0.62628,8.141614 -3.3819,12.275049 -8.45475,12.650816 v 2.442484 h 5.13548 v 15.970089 c 0,4.383944 0.12525,5.949644 0.75153,7.390084 1.00204,2.63036 3.50716,4.0708 7.13957,4.0708 5.6365,0 9.26891,-4.25869 9.26891,-10.897234 0,-0.375767 0,-0.814161 -0.0626,-1.440439 h -2.63037 c -0.18789,5.636503 -1.81621,8.517383 -4.88497,8.517383 -1.44044,0 -2.693,-0.75154 -3.13139,-1.81621 -0.37577,-0.87679 -0.56365,-2.442483 -0.56365,-4.697084 V 80.439387 h 9.20629 v -2.692995 z"
       id="text8"
       style="font-size:62.6278px;font-family:C059;-inkscape-font-specification:'C059, Normal';fill:#f2f2f2;stroke-width:20.3597;stroke-dashoffset:53.4161"
       aria-label="takt" />
  </g>
</svg>
